<?xml version="1.0" encoding="UTF-8" standalone="no"?>
<!-- Created with Inkscape (http://www.inkscape.org/) -->

<svg
   xmlns:dc="http://purl.org/dc/elements/1.1/"
   xmlns:cc="http://creativecommons.org/ns#"
   xmlns:rdf="http://www.w3.org/1999/02/22-rdf-syntax-ns#"
   xmlns:svg="http://www.w3.org/2000/svg"
   xmlns="http://www.w3.org/2000/svg"
   xmlns:xlink="http://www.w3.org/1999/xlink"
   xmlns:sodipodi="http://sodipodi.sourceforge.net/DTD/sodipodi-0.dtd"
   xmlns:inkscape="http://www.inkscape.org/namespaces/inkscape"
   width="54.324772mm"
   height="60.801533mm"
   viewBox="0 0 54.324771 60.801533"
   version="1.1"
   id="svg8"
   inkscape:version="0.92.4 (5da689c313, 2019-01-14)"
   sodipodi:docname="logo_simple.svg">
  <defs
     id="defs2">
    <linearGradient
       inkscape:collect="always"
       id="linearGradient4637">
      <stop
         style="stop-color:#006fb9;stop-opacity:1"
         offset="0"
         id="stop4633" />
      <stop
         style="stop-color:#8fc2e9;stop-opacity:1"
         offset="1"
         id="stop4635" />
    </linearGradient>
    <linearGradient
       inkscape:collect="always"
       id="linearGradient4621">
      <stop
         style="stop-color:#283584;stop-opacity:1"
         offset="0"
         id="stop4617" />
      <stop
         id="stop4625"
         offset="0.56018901"
         style="stop-color:#0071b9;stop-opacity:1" />
      <stop
         style="stop-color:#0084d8;stop-opacity:1"
         offset="1"
         id="stop4619" />
    </linearGradient>
    <linearGradient
       id="linearGradient4615"
       inkscape:collect="always">
      <stop
         id="stop4611"
         offset="0"
         style="stop-color:#d3eced;stop-opacity:1" />
      <stop
         id="stop4613"
         offset="1"
         style="stop-color:#4c99cc;stop-opacity:1" />
    </linearGradient>
    <linearGradient
       inkscape:collect="always"
       xlink:href="#linearGradient4615"
       id="linearGradient4609"
       x1="57.745308"
       y1="13.498917"
       x2="57.745308"
       y2="21.204041"
       gradientUnits="userSpaceOnUse" />
    <linearGradient
       inkscape:collect="always"
       xlink:href="#linearGradient4621"
       id="linearGradient4623"
       x1="41.393368"
       y1="21.465399"
       x2="41.393368"
       y2="43.601696"
       gradientUnits="userSpaceOnUse"
       spreadMethod="reflect" />
    <linearGradient
       inkscape:collect="always"
       xlink:href="#linearGradient4637"
       id="linearGradient4631"
       gradientUnits="userSpaceOnUse"
       x1="60.336098"
       y1="13.311843"
       x2="60.336098"
       y2="41.749321"
       gradientTransform="matrix(1,0,0,-1,0,87.442466)" />
  </defs>
  <sodipodi:namedview
     id="base"
     pagecolor="#ffffff"
     bordercolor="#666666"
     borderopacity="1.0"
     inkscape:pageopacity="0.0"
     inkscape:pageshadow="2"
     inkscape:zoom="0.58"
     inkscape:cx="58.112403"
     inkscape:cy="149.76193"
     inkscape:document-units="mm"
     inkscape:current-layer="layer1"
     showgrid="false"
     inkscape:window-width="1920"
     inkscape:window-height="1017"
     inkscape:window-x="1912"
     inkscape:window-y="-8"
     inkscape:window-maximized="1"
     fit-margin-top="0"
     fit-margin-left="0"
     fit-margin-right="0"
     fit-margin-bottom="0" />
  <metadata
     id="metadata5">
    <rdf:RDF>
      <cc:Work
         rdf:about="">
        <dc:format>image/svg+xml</dc:format>
        <dc:type
           rdf:resource="http://purl.org/dc/dcmitype/StillImage" />
        <dc:title></dc:title>
      </cc:Work>
    </rdf:RDF>
  </metadata>
  <g
     inkscape:label="Calque 1"
     inkscape:groupmode="layer"
     id="layer1"
     transform="translate(-77.837613,-104.12767)">
    <g
       id="g4642"
       transform="translate(50.320949,90.807199)">
      <path
         inkscape:connector-curvature="0"
         id="path3764"
         d="M 57.745309,13.498917 A 30.228645,30.228645 0 0 0 27.516664,43.727563 30.228645,30.228645 0 0 0 57.745309,73.956208 30.228645,30.228645 0 0 0 70.232918,71.224076 l -9.692947,-21.72684 a 6.4161452,6.4161452 0 0 1 -2.794662,0.646472 6.4161452,6.4161452 0 0 1 -6.416145,-6.416145 6.4161452,6.4161452 0 0 1 6.416145,-6.416146 6.4161452,6.4161452 0 0 1 3.181202,0.849561 L 72.670498,17.483687 a 30.228645,30.228645 0 0 0 -14.925189,-3.98477 z"
         style="opacity:1;fill:url(#linearGradient4623);fill-opacity:1;stroke-width:0.25509405" />
      <path
         sodipodi:nodetypes="csszssc"
         inkscape:connector-curvature="0"
         id="path4574"
         d="m 35.081011,23.573233 c 0,0 3.904792,-4.59082 10.720661,-7.600925 6.815869,-3.010104 16.4025,-4.533037 26.737189,1.415651 13.142812,7.565055 9.832815,18.261413 5.319314,21.853951 C 73.344674,42.834448 64.908351,42.678405 60.525072,37.975738 54.931918,31.975043 54.994395,29.596299 49.673927,24.692441 43.463628,18.968429 35.081011,23.573233 35.081011,23.573233 Z"
         style="fill:url(#linearGradient4609);fill-opacity:1;stroke:none;stroke-width:0.26458332px;stroke-linecap:butt;stroke-linejoin:miter;stroke-opacity:1" />
      <path
         style="fill:url(#linearGradient4631);fill-opacity:1;stroke:none;stroke-width:0.26458332px;stroke-linecap:butt;stroke-linejoin:miter;stroke-opacity:1"
         d="m 35.081011,63.869233 c 0,0 3.904792,4.59082 10.720661,7.600925 6.815869,3.010104 16.4025,4.533037 26.737189,-1.415651 13.142812,-7.565055 9.832815,-18.261413 5.319314,-21.853951 -4.513501,-3.592538 -12.949824,-3.436495 -17.333103,1.266172 -5.593154,6.000695 -5.530677,8.379439 -10.851145,13.283297 -6.210299,5.724012 -14.592916,1.119208 -14.592916,1.119208 z"
         id="path4627"
         inkscape:connector-curvature="0"
         sodipodi:nodetypes="csszssc" />
    </g>
  </g>
</svg>
