<?xml version="1.0" encoding="UTF-8" standalone="no"?>
<!-- Created with Inkscape (http://www.inkscape.org/) -->

<svg
   xmlns:dc="http://purl.org/dc/elements/1.1/"
   xmlns:cc="http://creativecommons.org/ns#"
   xmlns:rdf="http://www.w3.org/1999/02/22-rdf-syntax-ns#"
   xmlns:svg="http://www.w3.org/2000/svg"
   xmlns="http://www.w3.org/2000/svg"
   xmlns:xlink="http://www.w3.org/1999/xlink"
   xmlns:sodipodi="http://sodipodi.sourceforge.net/DTD/sodipodi-0.dtd"
   xmlns:inkscape="http://www.inkscape.org/namespaces/inkscape"
   width="157.32318mm"
   height="88.744667mm"
   viewBox="0 0 157.32318 88.744667"
   version="1.1"
   id="svg8"
   inkscape:version="0.92.4 (5da689c313, 2019-01-14)"
   sodipodi:docname="logo.svg">
  <defs
     id="defs2">
    <linearGradient
       inkscape:collect="always"
       id="linearGradient4637">
      <stop
         style="stop-color:#006fb9;stop-opacity:1"
         offset="0"
         id="stop4633" />
      <stop
         style="stop-color:#8fc2e9;stop-opacity:1"
         offset="1"
         id="stop4635" />
    </linearGradient>
    <linearGradient
       inkscape:collect="always"
       id="linearGradient4621">
      <stop
         style="stop-color:#283584;stop-opacity:1"
         offset="0"
         id="stop4617" />
      <stop
         id="stop4625"
         offset="0.56018901"
         style="stop-color:#0071b9;stop-opacity:1" />
      <stop
         style="stop-color:#0084d8;stop-opacity:1"
         offset="1"
         id="stop4619" />
    </linearGradient>
    <linearGradient
       id="linearGradient4615"
       inkscape:collect="always">
      <stop
         id="stop4611"
         offset="0"
         style="stop-color:#d3eced;stop-opacity:1" />
      <stop
         id="stop4613"
         offset="1"
         style="stop-color:#4c99cc;stop-opacity:1" />
    </linearGradient>
    <linearGradient
       inkscape:collect="always"
       xlink:href="#linearGradient4615"
       id="linearGradient4609"
       x1="57.745308"
       y1="13.498917"
       x2="57.745308"
       y2="21.204041"
       gradientUnits="userSpaceOnUse" />
    <linearGradient
       inkscape:collect="always"
       xlink:href="#linearGradient4621"
       id="linearGradient4623"
       x1="41.393368"
       y1="21.465399"
       x2="41.393368"
       y2="43.601696"
       gradientUnits="userSpaceOnUse"
       spreadMethod="reflect" />
    <linearGradient
       inkscape:collect="always"
       xlink:href="#linearGradient4637"
       id="linearGradient4631"
       gradientUnits="userSpaceOnUse"
       x1="60.336098"
       y1="13.311843"
       x2="60.336098"
       y2="41.749321"
       gradientTransform="matrix(1,0,0,-1,0,87.442466)" />
  </defs>
  <sodipodi:namedview
     id="base"
     pagecolor="#ffffff"
     bordercolor="#666666"
     borderopacity="1.0"
     inkscape:pageopacity="0.0"
     inkscape:pageshadow="2"
     inkscape:zoom="0.58"
     inkscape:cx="252.75506"
     inkscape:cy="255.37379"
     inkscape:document-units="mm"
     inkscape:current-layer="layer1"
     showgrid="false"
     inkscape:window-width="1920"
     inkscape:window-height="1017"
     inkscape:window-x="-8"
     inkscape:window-y="-8"
     inkscape:window-maximized="1"
     fit-margin-top="0"
     fit-margin-left="0"
     fit-margin-right="0"
     fit-margin-bottom="0" />
  <metadata
     id="metadata5">
    <rdf:RDF>
      <cc:Work
         rdf:about="">
        <dc:format>image/svg+xml</dc:format>
        <dc:type
           rdf:resource="http://purl.org/dc/dcmitype/StillImage" />
        <dc:title></dc:title>
      </cc:Work>
    </rdf:RDF>
  </metadata>
  <g
     inkscape:label="Calque 1"
     inkscape:groupmode="layer"
     id="layer1"
     transform="translate(-26.33841,-104.12767)">
    <g
       id="g4712"
       transform="translate(-6.036939,90.807199)">
      <g
         transform="translate(-63.715751,-23.443876)"
         id="g4693">
        <path
           inkscape:connector-curvature="0"
           id="path4644"
           style="font-style:normal;font-variant:normal;font-weight:normal;font-stretch:normal;font-size:32.23483658px;line-height:1.25;font-family:'Harabara Mais Demo';-inkscape-font-specification:'Harabara Mais Demo';font-variant-ligatures:normal;font-variant-caps:normal;font-variant-numeric:normal;font-feature-settings:normal;text-align:start;letter-spacing:0px;word-spacing:0px;writing-mode:lr-tb;text-anchor:start;fill:#000000;fill-opacity:1;stroke:none;stroke-width:0.12332241"
           d="m 111.2737,119.89711 h -3.22348 c -0.54799,0 -1.03151,0.19341 -1.45057,0.61247 -0.70916,0.80587 -1.5795,1.22492 -2.57878,1.22492 -2.38538,0.0322 -3.57807,-1.67621 -3.57807,-5.06087 0,-3.38466 1.12822,-5.0931 3.38466,-5.0931 1.35386,0 2.25644,0.61246 2.77219,1.77291 h 4.67405 c -0.7414,-3.707 -3.19124,-5.54439 -7.3173,-5.54439 -5.254278,0.0967 -7.8653,3.03008 -7.8653,8.86458 0.128939,5.86674 2.772196,8.83235 7.92977,8.83235 3.96488,0.0967 6.4792,-2.1275 7.25283,-5.60887 z" />
        <path
           inkscape:connector-curvature="0"
           id="path4646"
           style="font-style:normal;font-variant:normal;font-weight:normal;font-stretch:normal;font-size:32.23483658px;line-height:1.25;font-family:'Harabara Mais Demo';-inkscape-font-specification:'Harabara Mais Demo';font-variant-ligatures:normal;font-variant-caps:normal;font-variant-numeric:normal;font-feature-settings:normal;text-align:start;letter-spacing:0px;word-spacing:0px;writing-mode:lr-tb;text-anchor:start;fill:#000000;fill-opacity:1;stroke:none;stroke-width:0.12332241"
           d="m 115.75787,103.19947 h -2.2242 v 21.91969 h 4.28723 v -19.82443 c 0,-1.12822 -0.93481,-2.09526 -2.06303,-2.09526 z" />
        <path
           inkscape:connector-curvature="0"
           id="path4648"
           style="font-style:normal;font-variant:normal;font-weight:normal;font-stretch:normal;font-size:32.23483658px;line-height:1.25;font-family:'Harabara Mais Demo';-inkscape-font-specification:'Harabara Mais Demo';font-variant-ligatures:normal;font-variant-caps:normal;font-variant-numeric:normal;font-feature-settings:normal;text-align:start;letter-spacing:0px;word-spacing:0px;writing-mode:lr-tb;text-anchor:start;fill:#000000;fill-opacity:1;stroke:none;stroke-width:0.12332241"
           d="m 135.32391,119.89711 h -3.15901 c -0.58023,0 -1.06375,0.19341 -1.45057,0.61247 -0.8381,0.80587 -1.77291,1.22492 -2.77219,1.22492 -2.09527,0 -3.22349,-1.32163 -3.38466,-3.93265 h 11.02431 c 0.32235,-6.67261 -2.2242,-9.9928 -7.63965,-9.9928 -5.18981,0.0322 -7.80083,2.93337 -7.80083,8.73564 0,5.80227 2.57878,8.80011 7.73636,8.96129 4.19053,0 6.51143,-1.99856 7.44624,-5.60887 z m -7.44624,-8.57446 c 1.83738,0 2.90113,1.16045 3.15901,3.41689 h -6.41473 c 0.32235,-2.25644 1.41833,-3.41689 3.25572,-3.41689 z" />
        <path
           inkscape:connector-curvature="0"
           id="path4650"
           style="font-style:normal;font-variant:normal;font-weight:normal;font-stretch:normal;font-size:32.23483658px;line-height:1.25;font-family:'Harabara Mais Demo';-inkscape-font-specification:'Harabara Mais Demo';font-variant-ligatures:normal;font-variant-caps:normal;font-variant-numeric:normal;font-feature-settings:normal;text-align:start;letter-spacing:0px;word-spacing:0px;writing-mode:lr-tb;text-anchor:start;fill:#000000;fill-opacity:1;stroke:none;stroke-width:0.12332241"
           d="m 148.93608,108.06693 c -1.06375,0 -1.77292,0.51576 -2.09526,1.51504 l -2.96561,10.44408 -3.44913,-11.95912 h -4.73852 l 5.99568,17.05223 h 4.54511 l 6.02792,-17.05223 z" />
        <path
           inkscape:connector-curvature="0"
           id="path4652"
           style="font-style:normal;font-variant:normal;font-weight:normal;font-stretch:normal;font-size:32.23483658px;line-height:1.25;font-family:'Harabara Mais Demo';-inkscape-font-specification:'Harabara Mais Demo';font-variant-ligatures:normal;font-variant-caps:normal;font-variant-numeric:normal;font-feature-settings:normal;text-align:start;letter-spacing:0px;word-spacing:0px;writing-mode:lr-tb;text-anchor:start;fill:#000000;fill-opacity:1;stroke:none;stroke-width:0.12332241"
           d="m 168.31426,119.89711 h -3.15902 c -0.58023,0 -1.06375,0.19341 -1.45057,0.61247 -0.8381,0.80587 -1.77291,1.22492 -2.77219,1.22492 -2.09527,0 -3.22349,-1.32163 -3.38466,-3.93265 h 11.02431 c 0.32235,-6.67261 -2.2242,-9.9928 -7.63965,-9.9928 -5.18981,0.0322 -7.80083,2.93337 -7.80083,8.73564 0,5.80227 2.57878,8.80011 7.73636,8.96129 4.19053,0 6.51143,-1.99856 7.44625,-5.60887 z m -7.44625,-8.57446 c 1.83738,0 2.90113,1.16045 3.15901,3.41689 h -6.41473 c 0.32235,-2.25644 1.41833,-3.41689 3.25572,-3.41689 z" />
        <path
           inkscape:connector-curvature="0"
           id="path4654"
           style="font-style:normal;font-variant:normal;font-weight:normal;font-stretch:normal;font-size:32.23483658px;line-height:1.25;font-family:'Harabara Mais Demo';-inkscape-font-specification:'Harabara Mais Demo';font-variant-ligatures:normal;font-variant-caps:normal;font-variant-numeric:normal;font-feature-settings:normal;text-align:start;letter-spacing:0px;word-spacing:0px;writing-mode:lr-tb;text-anchor:start;fill:#000000;fill-opacity:1;stroke:none;stroke-width:0.12332241"
           d="m 170.57422,125.11916 h 4.35171 v -8.86458 c 0,-2.48208 1.19269,-3.73924 3.57806,-3.73924 h 1.45057 v -4.44841 h -0.61246 c -5.70557,0 -8.63894,2.73996 -8.76788,8.25212 z" />
        <path
           inkscape:connector-curvature="0"
           id="path4656"
           style="font-style:normal;font-variant:normal;font-weight:normal;font-stretch:normal;font-size:32.23483658px;line-height:1.25;font-family:'Harabara Mais Demo';-inkscape-font-specification:'Harabara Mais Demo';font-variant-ligatures:normal;font-variant-caps:normal;font-variant-numeric:normal;font-feature-settings:normal;text-align:start;letter-spacing:0px;word-spacing:0px;writing-mode:lr-tb;text-anchor:start;fill:#000000;fill-opacity:1;stroke:none;stroke-width:0.12332241"
           d="m 188.19968,110.12996 v -0.99928 h -2.7722 v -1.12822 c 0.0967,-0.83811 0.6447,-1.25716 1.64398,-1.25716 h 1.12822 v -3.54583 c -0.6447,-0.0967 -1.32163,-0.12894 -2.06303,-0.12894 -3.19125,0 -5.09311,1.28939 -4.93193,4.54511 v 17.50352 h 4.28723 v -12.82947 h 0.58023 c 1.16045,0 2.1275,-0.99928 2.1275,-2.15973 z" />
        <path
           inkscape:connector-curvature="0"
           id="path4658"
           style="font-style:normal;font-variant:normal;font-weight:normal;font-stretch:normal;font-size:32.23483658px;line-height:1.25;font-family:'Harabara Mais Demo';-inkscape-font-specification:'Harabara Mais Demo';font-variant-ligatures:normal;font-variant-caps:normal;font-variant-numeric:normal;font-feature-settings:normal;text-align:start;letter-spacing:0px;word-spacing:0px;writing-mode:lr-tb;text-anchor:start;fill:#000000;fill-opacity:1;stroke:none;stroke-width:0.12332241"
           d="m 190.33372,103.19947 v 3.35242 h 4.28723 v -1.25716 c 0.0322,-1.38609 -0.64469,-2.09526 -2.06303,-2.09526 z m 0,4.86746 v 17.05223 h 4.28723 v -14.9892 c 0,-1.3861 -0.67693,-2.06303 -2.06303,-2.06303 z" />
        <path
           inkscape:connector-curvature="0"
           id="path4660"
           style="font-style:normal;font-variant:normal;font-weight:normal;font-stretch:normal;font-size:32.23483658px;line-height:1.25;font-family:'Harabara Mais Demo';-inkscape-font-specification:'Harabara Mais Demo';font-variant-ligatures:normal;font-variant-caps:normal;font-variant-numeric:normal;font-feature-settings:normal;text-align:start;letter-spacing:0px;word-spacing:0px;writing-mode:lr-tb;text-anchor:start;fill:#000000;fill-opacity:1;stroke:none;stroke-width:0.12332241"
           d="m 212.12397,119.89711 h -3.15901 c -0.58023,0 -1.06375,0.19341 -1.45057,0.61247 -0.83811,0.80587 -1.77292,1.22492 -2.7722,1.22492 -2.09526,0 -3.22348,-1.32163 -3.38466,-3.93265 h 11.02432 c 0.32235,-6.67261 -2.22421,-9.9928 -7.63966,-9.9928 -5.18981,0.0322 -7.80083,2.93337 -7.80083,8.73564 0,5.80227 2.57879,8.80011 7.73636,8.96129 4.19053,0 6.51144,-1.99856 7.44625,-5.60887 z m -7.44625,-8.57446 c 1.83739,0 2.90114,1.16045 3.15902,3.41689 H 201.422 c 0.32235,-2.25644 1.41834,-3.41689 3.25572,-3.41689 z" />
        <path
           inkscape:connector-curvature="0"
           id="path4662"
           style="font-style:normal;font-variant:normal;font-weight:normal;font-stretch:normal;font-size:32.23483658px;line-height:1.25;font-family:'Harabara Mais Demo';-inkscape-font-specification:'Harabara Mais Demo';font-variant-ligatures:normal;font-variant-caps:normal;font-variant-numeric:normal;font-feature-settings:normal;text-align:start;letter-spacing:0px;word-spacing:0px;writing-mode:lr-tb;text-anchor:start;fill:#000000;fill-opacity:1;stroke:none;stroke-width:0.12332241"
           d="m 216.60814,103.19947 h -2.2242 v 21.91969 h 4.28723 v -19.82443 c 0,-1.12822 -0.93481,-2.09526 -2.06303,-2.09526 z" />
        <path
           inkscape:connector-curvature="0"
           id="path4664"
           style="font-style:normal;font-variant:normal;font-weight:normal;font-stretch:normal;font-size:32.23483658px;line-height:1.25;font-family:'Harabara Mais Demo';-inkscape-font-specification:'Harabara Mais Demo';font-variant-ligatures:normal;font-variant-caps:normal;font-variant-numeric:normal;font-feature-settings:normal;text-align:start;letter-spacing:0px;word-spacing:0px;writing-mode:lr-tb;text-anchor:start;fill:#000000;fill-opacity:1;stroke:none;stroke-width:0.12332241"
           d="m 228.98581,111.645 c 2.32091,0 3.5136,1.61174 3.6103,4.89969 0,3.44913 -1.22492,5.18981 -3.67477,5.18981 -2.44985,0 -3.6103,-1.74068 -3.57807,-5.18981 0.12894,-3.28795 1.32163,-4.89969 3.64254,-4.89969 z m 5.7378,-8.44553 h -2.1275 v 7.25284 c -1.09598,-1.77292 -2.73996,-2.64326 -4.86746,-2.64326 -4.54511,0.16117 -6.80155,3.12678 -6.80155,8.92905 0,5.67333 2.64326,8.54223 7.92977,8.63894 5.31875,0.0322 7.99424,-2.51432 7.99424,-7.63966 V 105.3592 c 0,-1.16045 -0.96704,-2.15973 -2.1275,-2.15973 z" />
        <path
           inkscape:connector-curvature="0"
           id="path4666"
           style="font-style:normal;font-variant:normal;font-weight:normal;font-stretch:normal;font-size:32.23483658px;line-height:1.25;font-family:'Harabara Mais Demo';-inkscape-font-specification:'Harabara Mais Demo';font-variant-ligatures:normal;font-variant-caps:normal;font-variant-numeric:normal;font-feature-settings:normal;text-align:start;letter-spacing:0px;word-spacing:0px;writing-mode:lr-tb;text-anchor:start;fill:#000000;fill-opacity:1;stroke:none;stroke-width:0.12332241"
           d="m 242.71232,119.5103 h -4.38394 c 0,1.96632 0.6447,3.44912 1.93409,4.41617 1.16045,0.99928 2.9656,1.51504 5.35098,1.51504 4.51288,0 7.80083,-1.54728 7.80083,-5.7378 0,-1.16046 -0.38682,-2.19197 -1.19269,-3.03008 -0.93481,-0.87034 -2.83666,-1.61174 -5.7378,-2.19197 -2.2242,-0.41905 -3.32019,-1.09598 -3.32019,-1.96632 0,-0.87034 0.83811,-1.32163 2.51432,-1.32163 1.41833,0 2.28867,0.41905 2.57879,1.16045 0.25788,0.67693 0.90257,1.03152 1.90185,1.06375 h 2.70773 c -0.0967,-1.77291 -0.77364,-3.15901 -2.0308,-4.15829 -1.28939,-0.96705 -3.03007,-1.45057 -5.22204,-1.45057 -3.90041,0.0645 -6.80155,1.80515 -6.80155,5.47992 0.0322,2.67549 1.96633,4.35171 5.7378,5.02864 2.93337,0.51575 4.41617,1.22492 4.41617,2.09526 0,1.09599 -0.90257,1.61174 -2.70772,1.61174 -2.09527,0 -3.44913,-0.64469 -3.54583,-2.51431 z" />
      </g>
      <g
         transform="translate(56.357888)"
         id="g4642">
        <path
           style="opacity:1;fill:url(#linearGradient4623);fill-opacity:1;stroke-width:0.25509405"
           d="M 57.745309,13.498917 A 30.228645,30.228645 0 0 0 27.516664,43.727563 30.228645,30.228645 0 0 0 57.745309,73.956208 30.228645,30.228645 0 0 0 70.232918,71.224076 l -9.692947,-21.72684 a 6.4161452,6.4161452 0 0 1 -2.794662,0.646472 6.4161452,6.4161452 0 0 1 -6.416145,-6.416145 6.4161452,6.4161452 0 0 1 6.416145,-6.416146 6.4161452,6.4161452 0 0 1 3.181202,0.849561 L 72.670498,17.483687 a 30.228645,30.228645 0 0 0 -14.925189,-3.98477 z"
           id="path3764"
           inkscape:connector-curvature="0" />
        <path
           style="fill:url(#linearGradient4609);fill-opacity:1;stroke:none;stroke-width:0.26458332px;stroke-linecap:butt;stroke-linejoin:miter;stroke-opacity:1"
           d="m 35.081011,23.573233 c 0,0 3.904792,-4.59082 10.720661,-7.600925 6.815869,-3.010104 16.4025,-4.533037 26.737189,1.415651 13.142812,7.565055 9.832815,18.261413 5.319314,21.853951 C 73.344674,42.834448 64.908351,42.678405 60.525072,37.975738 54.931918,31.975043 54.994395,29.596299 49.673927,24.692441 43.463628,18.968429 35.081011,23.573233 35.081011,23.573233 Z"
           id="path4574"
           inkscape:connector-curvature="0"
           sodipodi:nodetypes="csszssc" />
        <path
           sodipodi:nodetypes="csszssc"
           inkscape:connector-curvature="0"
           id="path4627"
           d="m 35.081011,63.869233 c 0,0 3.904792,4.59082 10.720661,7.600925 6.815869,3.010104 16.4025,4.533037 26.737189,-1.415651 13.142812,-7.565055 9.832815,-18.261413 5.319314,-21.853951 -4.513501,-3.592538 -12.949824,-3.436495 -17.333103,1.266172 -5.593154,6.000695 -5.530677,8.379439 -10.851145,13.283297 -6.210299,5.724012 -14.592916,1.119208 -14.592916,1.119208 z"
           style="fill:url(#linearGradient4631);fill-opacity:1;stroke:none;stroke-width:0.26458332px;stroke-linecap:butt;stroke-linejoin:miter;stroke-opacity:1" />
      </g>
    </g>
  </g>
</svg>
