<?xml version="1.0" encoding="UTF-8" standalone="no"?>
<!-- Created with Inkscape (http://www.inkscape.org/) -->

<svg
   xmlns:dc="http://purl.org/dc/elements/1.1/"
   xmlns:cc="http://creativecommons.org/ns#"
   xmlns:rdf="http://www.w3.org/1999/02/22-rdf-syntax-ns#"
   xmlns:svg="http://www.w3.org/2000/svg"
   xmlns="http://www.w3.org/2000/svg"
   xmlns:sodipodi="http://sodipodi.sourceforge.net/DTD/sodipodi-0.dtd"
   xmlns:inkscape="http://www.inkscape.org/namespaces/inkscape"
   width="184"
   height="54"
   viewBox="0 0 48.683335 14.287501"
   version="1.1"
   id="svg221"
   inkscape:version="0.92.4 5da689c313, 2019-01-14"
   sodipodi:docname="logo_outlined_white.svg">
  <defs
     id="defs215" />
  <sodipodi:namedview
     id="base"
     pagecolor="#ffffff"
     bordercolor="#666666"
     borderopacity="1.0"
     inkscape:pageopacity="0.0"
     inkscape:pageshadow="2"
     inkscape:zoom="2.8284271"
     inkscape:cx="103.00256"
     inkscape:cy="48.35233"
     inkscape:document-units="mm"
     inkscape:current-layer="layer1"
     showgrid="false"
     inkscape:window-width="1510"
     inkscape:window-height="735"
     inkscape:window-x="2170"
     inkscape:window-y="186"
     inkscape:window-maximized="0"
     fit-margin-top="0"
     fit-margin-left="0"
     fit-margin-right="0"
     fit-margin-bottom="0"
     units="px"
     inkscape:pagecheckerboard="true" />
  <metadata
     id="metadata218">
    <rdf:RDF>
      <cc:Work
         rdf:about="">
        <dc:format>image/svg+xml</dc:format>
        <dc:type
           rdf:resource="http://purl.org/dc/dcmitype/StillImage" />
        <dc:title />
      </cc:Work>
    </rdf:RDF>
  </metadata>
  <g
     inkscape:label="Calque 1"
     inkscape:groupmode="layer"
     id="layer1"
     transform="translate(-25.83841,-179.08906)">
    <g
       id="g47"
       transform="matrix(1.3847645,0,0,1.3847645,-14.069006,-71.448218)"
       style="fill:#ffffff;stroke:none">
      <path
         inkscape:connector-curvature="0"
         id="path4753"
         style="font-style:normal;font-variant:normal;font-weight:normal;font-stretch:normal;font-size:32.23483658px;line-height:1.25;font-family:'Harabara Mais Demo';-inkscape-font-specification:'Harabara Mais Demo';font-variant-ligatures:normal;font-variant-caps:normal;font-variant-numeric:normal;font-feature-settings:normal;text-align:start;letter-spacing:0px;word-spacing:0px;writing-mode:lr-tb;text-anchor:start;fill:#ffffff;fill-opacity:1;stroke:none;stroke-width:0.15690069;stroke-miterlimit:4;stroke-dasharray:none;stroke-opacity:1"
         d="M 41.362637,186.96271 H 40.85687 c -0.08598,0 -0.161846,0.0303 -0.227593,0.0961 -0.111271,0.12644 -0.247826,0.19219 -0.404612,0.19219 -0.374268,0.005 -0.561403,-0.263 -0.561403,-0.79405 0,-0.53106 0.177019,-0.79911 0.531055,-0.79911 0.212422,0 0.354037,0.0961 0.43496,0.27817 h 0.73336 c -0.116327,-0.58163 -0.500706,-0.86992 -1.148088,-0.86992 -0.8244,0.0152 -1.234072,0.47542 -1.234072,1.39086 0.02021,0.92049 0.43496,1.3858 1.244188,1.3858 0.622089,0.0152 1.01659,-0.33381 1.137972,-0.88003 z" />
      <path
         inkscape:connector-curvature="0"
         id="path4755"
         style="font-style:normal;font-variant:normal;font-weight:normal;font-stretch:normal;font-size:32.23483658px;line-height:1.25;font-family:'Harabara Mais Demo';-inkscape-font-specification:'Harabara Mais Demo';font-variant-ligatures:normal;font-variant-caps:normal;font-variant-numeric:normal;font-feature-settings:normal;text-align:start;letter-spacing:0px;word-spacing:0px;writing-mode:lr-tb;text-anchor:start;fill:#ffffff;fill-opacity:1;stroke:none;stroke-width:0.15690069;stroke-miterlimit:4;stroke-dasharray:none;stroke-opacity:1"
         d="m 42.066208,184.34283 h -0.34898 v 3.43922 h 0.672669 v -3.11047 c 0,-0.17702 -0.146671,-0.32875 -0.323689,-0.32875 z" />
      <path
         inkscape:connector-curvature="0"
         id="path4757"
         style="font-style:normal;font-variant:normal;font-weight:normal;font-stretch:normal;font-size:32.23483658px;line-height:1.25;font-family:'Harabara Mais Demo';-inkscape-font-specification:'Harabara Mais Demo';font-variant-ligatures:normal;font-variant-caps:normal;font-variant-numeric:normal;font-feature-settings:normal;text-align:start;letter-spacing:0px;word-spacing:0px;writing-mode:lr-tb;text-anchor:start;fill:#ffffff;fill-opacity:1;stroke:none;stroke-width:0.15690069;stroke-miterlimit:4;stroke-dasharray:none;stroke-opacity:1"
         d="m 45.136133,186.96271 h -0.495651 c -0.09104,0 -0.166903,0.0303 -0.227598,0.0961 -0.131499,0.12644 -0.278169,0.19219 -0.434956,0.19219 -0.328748,0 -0.505771,-0.20736 -0.531059,-0.61703 h 1.729723 c 0.05058,-1.04694 -0.348976,-1.56788 -1.198664,-1.56788 -0.814288,0.005 -1.223955,0.46025 -1.223955,1.37063 0,0.91038 0.404611,1.38074 1.213839,1.40603 0.657498,0 1.021646,-0.31358 1.168321,-0.88003 z m -1.168321,-1.34534 c 0.288285,0 0.455188,0.18207 0.495651,0.53611 h -1.006478 c 0.05058,-0.35404 0.222538,-0.53611 0.510827,-0.53611 z" />
      <path
         inkscape:connector-curvature="0"
         id="path4759"
         style="font-style:normal;font-variant:normal;font-weight:normal;font-stretch:normal;font-size:32.23483658px;line-height:1.25;font-family:'Harabara Mais Demo';-inkscape-font-specification:'Harabara Mais Demo';font-variant-ligatures:normal;font-variant-caps:normal;font-variant-numeric:normal;font-feature-settings:normal;text-align:start;letter-spacing:0px;word-spacing:0px;writing-mode:lr-tb;text-anchor:start;fill:#ffffff;fill-opacity:1;stroke:none;stroke-width:0.15690069;stroke-miterlimit:4;stroke-dasharray:none;stroke-opacity:1"
         d="m 47.27189,185.10654 c -0.166902,0 -0.278173,0.0809 -0.328749,0.23771 l -0.465303,1.63869 -0.541171,-1.8764 h -0.743481 l 0.940727,2.67551 h 0.713133 l 0.945783,-2.67551 z" />
      <path
         inkscape:connector-curvature="0"
         id="path4761"
         style="font-style:normal;font-variant:normal;font-weight:normal;font-stretch:normal;font-size:32.23483658px;line-height:1.25;font-family:'Harabara Mais Demo';-inkscape-font-specification:'Harabara Mais Demo';font-variant-ligatures:normal;font-variant-caps:normal;font-variant-numeric:normal;font-feature-settings:normal;text-align:start;letter-spacing:0px;word-spacing:0px;writing-mode:lr-tb;text-anchor:start;fill:#ffffff;fill-opacity:1;stroke:none;stroke-width:0.15690069;stroke-miterlimit:4;stroke-dasharray:none;stroke-opacity:1"
         d="m 50.31234,186.96271 h -0.495651 c -0.09104,0 -0.166902,0.0303 -0.227598,0.0961 -0.131499,0.12644 -0.278169,0.19219 -0.434955,0.19219 -0.328749,0 -0.505772,-0.20736 -0.53106,-0.61703 h 1.729723 c 0.05058,-1.04694 -0.348976,-1.56788 -1.198663,-1.56788 -0.814289,0.005 -1.223956,0.46025 -1.223956,1.37063 0,0.91038 0.404612,1.38074 1.21384,1.40603 0.657497,0 1.021645,-0.31358 1.16832,-0.88003 z m -1.16832,-1.34534 c 0.288285,0 0.455187,0.18207 0.495651,0.53611 h -1.006479 c 0.05058,-0.35404 0.222538,-0.53611 0.510828,-0.53611 z" />
      <path
         inkscape:connector-curvature="0"
         id="path4763"
         style="font-style:normal;font-variant:normal;font-weight:normal;font-stretch:normal;font-size:32.23483658px;line-height:1.25;font-family:'Harabara Mais Demo';-inkscape-font-specification:'Harabara Mais Demo';font-variant-ligatures:normal;font-variant-caps:normal;font-variant-numeric:normal;font-feature-settings:normal;text-align:start;letter-spacing:0px;word-spacing:0px;writing-mode:lr-tb;text-anchor:start;fill:#ffffff;fill-opacity:1;stroke:none;stroke-width:0.15690069;stroke-miterlimit:4;stroke-dasharray:none;stroke-opacity:1"
         d="m 50.66693,187.78205 h 0.682785 v -1.39086 c 0,-0.38944 0.187134,-0.58669 0.561403,-0.58669 h 0.227593 v -0.69796 h -0.09609 c -0.895207,0 -1.355454,0.4299 -1.375686,1.29476 z" />
      <path
         inkscape:connector-curvature="0"
         id="path4765"
         style="font-style:normal;font-variant:normal;font-weight:normal;font-stretch:normal;font-size:32.23483658px;line-height:1.25;font-family:'Harabara Mais Demo';-inkscape-font-specification:'Harabara Mais Demo';font-variant-ligatures:normal;font-variant-caps:normal;font-variant-numeric:normal;font-feature-settings:normal;text-align:start;letter-spacing:0px;word-spacing:0px;writing-mode:lr-tb;text-anchor:start;fill:#ffffff;fill-opacity:1;stroke:none;stroke-width:0.15690069;stroke-miterlimit:4;stroke-dasharray:none;stroke-opacity:1"
         d="m 53.432376,185.43023 v -0.15678 h -0.43496 v -0.17703 c 0.01517,-0.13149 0.101156,-0.19724 0.257942,-0.19724 h 0.177018 v -0.55635 c -0.101155,-0.0152 -0.207362,-0.0202 -0.323689,-0.0202 -0.500711,0 -0.799112,0.2023 -0.773824,0.71313 v 2.74631 h 0.672669 v -2.01295 h 0.09104 c 0.182073,0 0.333804,-0.15679 0.333804,-0.33886 z" />
      <path
         inkscape:connector-curvature="0"
         id="path4767"
         style="font-style:normal;font-variant:normal;font-weight:normal;font-stretch:normal;font-size:32.23483658px;line-height:1.25;font-family:'Harabara Mais Demo';-inkscape-font-specification:'Harabara Mais Demo';font-variant-ligatures:normal;font-variant-caps:normal;font-variant-numeric:normal;font-feature-settings:normal;text-align:start;letter-spacing:0px;word-spacing:0px;writing-mode:lr-tb;text-anchor:start;fill:#ffffff;fill-opacity:1;stroke:none;stroke-width:0.15690069;stroke-miterlimit:4;stroke-dasharray:none;stroke-opacity:1"
         d="m 53.767211,184.34283 v 0.526 h 0.67267 v -0.19725 c 0.005,-0.21748 -0.101156,-0.32875 -0.323693,-0.32875 z m 0,0.76371 v 2.67551 h 0.67267 v -2.35182 c 0,-0.21748 -0.106211,-0.32369 -0.323693,-0.32369 z" />
      <path
         inkscape:connector-curvature="0"
         id="path4769"
         style="font-style:normal;font-variant:normal;font-weight:normal;font-stretch:normal;font-size:32.23483658px;line-height:1.25;font-family:'Harabara Mais Demo';-inkscape-font-specification:'Harabara Mais Demo';font-variant-ligatures:normal;font-variant-caps:normal;font-variant-numeric:normal;font-feature-settings:normal;text-align:start;letter-spacing:0px;word-spacing:0px;writing-mode:lr-tb;text-anchor:start;fill:#ffffff;fill-opacity:1;stroke:none;stroke-width:0.15690069;stroke-miterlimit:4;stroke-dasharray:none;stroke-opacity:1"
         d="m 57.186117,186.96271 h -0.495651 c -0.09104,0 -0.166907,0.0303 -0.227598,0.0961 -0.131499,0.12644 -0.278174,0.19219 -0.43496,0.19219 -0.328749,0 -0.505767,-0.20736 -0.531055,-0.61703 h 1.729723 c 0.05058,-1.04694 -0.348981,-1.56788 -1.198668,-1.56788 -0.814284,0.005 -1.223956,0.46025 -1.223956,1.37063 0,0.91038 0.404616,1.38074 1.21384,1.40603 0.657497,0 1.02165,-0.31358 1.168325,-0.88003 z m -1.168325,-1.34534 c 0.288289,0 0.455192,0.18207 0.495655,0.53611 h -1.006478 c 0.05058,-0.35404 0.222538,-0.53611 0.510823,-0.53611 z" />
      <path
         inkscape:connector-curvature="0"
         id="path4771"
         style="font-style:normal;font-variant:normal;font-weight:normal;font-stretch:normal;font-size:32.23483658px;line-height:1.25;font-family:'Harabara Mais Demo';-inkscape-font-specification:'Harabara Mais Demo';font-variant-ligatures:normal;font-variant-caps:normal;font-variant-numeric:normal;font-feature-settings:normal;text-align:start;letter-spacing:0px;word-spacing:0px;writing-mode:lr-tb;text-anchor:start;fill:#ffffff;fill-opacity:1;stroke:none;stroke-width:0.15690069;stroke-miterlimit:4;stroke-dasharray:none;stroke-opacity:1"
         d="m 57.889683,184.34283 h -0.348976 v 3.43922 h 0.672669 v -3.11047 c 0,-0.17702 -0.146675,-0.32875 -0.323693,-0.32875 z" />
      <path
         inkscape:connector-curvature="0"
         id="path4773"
         style="font-style:normal;font-variant:normal;font-weight:normal;font-stretch:normal;font-size:32.23483658px;line-height:1.25;font-family:'Harabara Mais Demo';-inkscape-font-specification:'Harabara Mais Demo';font-variant-ligatures:normal;font-variant-caps:normal;font-variant-numeric:normal;font-feature-settings:normal;text-align:start;letter-spacing:0px;word-spacing:0px;writing-mode:lr-tb;text-anchor:start;fill:#ffffff;fill-opacity:1;stroke:none;stroke-width:0.15690069;stroke-miterlimit:4;stroke-dasharray:none;stroke-opacity:1"
         d="m 59.831751,185.66794 c 0.364153,0 0.551282,0.25289 0.566458,0.76877 0,0.54117 -0.192194,0.81428 -0.576574,0.81428 -0.384384,0 -0.566458,-0.27311 -0.561402,-0.81428 0.02021,-0.51588 0.207366,-0.76877 0.571518,-0.76877 z m 0.900263,-1.32511 h -0.333805 v 1.13798 c -0.171962,-0.27817 -0.429904,-0.41473 -0.763708,-0.41473 -0.713133,0.0253 -1.06717,0.4906 -1.06717,1.40097 0,0.89015 0.414728,1.34029 1.244188,1.35546 0.834516,0.005 1.254299,-0.3945 1.254299,-1.19867 v -1.94214 c 0,-0.18208 -0.151726,-0.33887 -0.333804,-0.33887 z" />
      <path
         inkscape:connector-curvature="0"
         id="path4775"
         style="font-style:normal;font-variant:normal;font-weight:normal;font-stretch:normal;font-size:32.23483658px;line-height:1.25;font-family:'Harabara Mais Demo';-inkscape-font-specification:'Harabara Mais Demo';font-variant-ligatures:normal;font-variant-caps:normal;font-variant-numeric:normal;font-feature-settings:normal;text-align:start;letter-spacing:0px;word-spacing:0px;writing-mode:lr-tb;text-anchor:start;fill:#ffffff;fill-opacity:1;stroke:none;stroke-width:0.15690069;stroke-miterlimit:4;stroke-dasharray:none;stroke-opacity:1"
         d="m 61.985449,186.90201 h -0.687846 c 0,0.30852 0.101156,0.54118 0.303461,0.69291 0.182074,0.15678 0.465304,0.23771 0.839572,0.23771 0.708077,0 1.223956,-0.24277 1.223956,-0.90027 0,-0.18208 -0.06069,-0.34392 -0.187134,-0.47542 -0.146671,-0.13656 -0.445072,-0.25288 -0.900263,-0.34392 -0.348981,-0.0658 -0.520939,-0.17196 -0.520939,-0.30852 0,-0.13656 0.131499,-0.20736 0.394496,-0.20736 0.222538,0 0.359097,0.0658 0.404616,0.18207 0.04047,0.10621 0.141615,0.16185 0.298401,0.16691 h 0.424844 c -0.01517,-0.27818 -0.121383,-0.49565 -0.318633,-0.65245 -0.202306,-0.15173 -0.475419,-0.22759 -0.819344,-0.22759 -0.611973,0.0101 -1.067165,0.28323 -1.067165,0.8598 0.005,0.41979 0.308517,0.68279 0.900263,0.789 0.460247,0.0809 0.692901,0.19219 0.692901,0.32875 0,0.17196 -0.141615,0.25288 -0.424844,0.25288 -0.328749,0 -0.541171,-0.10115 -0.556342,-0.3945 z" />
    </g>
    <g
       id="g33"
       transform="matrix(1.3089714,0,0,1.3089714,-9.6499429,-57.950036)">
      <path
         sodipodi:nodetypes="ccscccscc"
         style="opacity:1;fill:none;fill-opacity:1;stroke:#ffffff;stroke-width:0.15690069;stroke-miterlimit:4;stroke-dasharray:none;stroke-opacity:1"
         d="m 32.691352,187.453 c -0.136636,0.0665 -0.286543,0.10114 -0.438485,0.10143 -0.555982,0 -1.006699,-0.45072 -1.006699,-1.0067 0,-0.55598 0.450717,-1.0067 1.006699,-1.0067 0.175141,3.2e-4 0.336803,0.067 0.488754,0.15406 m -0.503431,-3.91961 c -2.619428,0 -4.728218,2.15282 -4.728218,4.77225 0,2.61943 2.123466,4.7429 4.742895,4.7429 0.676194,-0.002 1.344235,-0.14775 1.959315,-0.42868"
         id="path4779"
         inkscape:connector-curvature="0" />
      <path
         style="fill:none;fill-opacity:1;stroke:#ffffff;stroke-width:0.15690069;stroke-linecap:butt;stroke-linejoin:miter;stroke-miterlimit:4;stroke-dasharray:none;stroke-opacity:1"
         d="m 28.70416,183.3855 c 0,0 0.605329,-0.7203 1.67474,-1.19259 1.069416,-0.47229 2.573567,-0.71123 4.195084,0.22212 2.062119,1.18696 1.542778,2.86523 0.834606,3.4289 -0.708172,0.56367 -2.031838,0.53919 -2.719575,-0.19866 -0.877573,-0.94152 -0.867767,-1.31474 -1.702553,-2.08416 -0.974402,-0.8981 -2.282302,-0.17561 -2.282302,-0.17561 z"
         id="path4781"
         inkscape:connector-curvature="0"
         sodipodi:nodetypes="csszssc" />
      <path
         sodipodi:nodetypes="csszssc"
         inkscape:connector-curvature="0"
         id="path4783"
         d="m 28.696822,189.67128 c 0,0 0.612667,0.757 1.682078,1.22928 1.069416,0.47229 2.573567,0.71124 4.195084,-0.22211 2.062119,-1.18697 1.542778,-2.86523 0.834606,-3.4289 -0.708172,-0.56367 -2.031838,-0.53919 -2.719575,0.19866 -0.877573,0.94151 -0.867767,1.31474 -1.702553,2.08416 -0.974402,0.8981 -2.28964,0.13891 -2.28964,0.13891 z"
         style="fill:none;fill-opacity:1;stroke:#ffffff;stroke-width:0.15690069;stroke-linecap:butt;stroke-linejoin:miter;stroke-miterlimit:4;stroke-dasharray:none;stroke-opacity:1" />
    </g>
  </g>
</svg>
